#!OML:ASF F:\VICON\USERDATA\INSTALL\Justin_Nancy\Justin_Nancy.ASF
:FULLY-SPECIFIED
:DEGREES
63
root 11.6269 17.2153 -12.304 -2.79756 -1.36619 6.68943
lowerback 6.52074 -1.75367 -7.55762
upperback -0.168945 -2.83671 2.21693
thorax -3.36072 -1.26561 6.83925
lowerneck -15.9196 -4.1098 -10.4845
upperneck 23.4126 -4.28684 5.09141
head 10.4885 -2.31958 2.98227
rclavicle 1.82633e-014 -4.13472e-014
rhumerus -38.3882 -19.1196 -73.0241
rradius 31.5259
rwrist 5.68744
rhand -16.8533 11.95
rfingers 7.12502
rthumb 9.37694 -17.8214
lclavicle 1.82633e-014 -4.13472e-014
lhumerus -32.2086 13.8121 81.2988
lradius 20.7888
lwrist -12.134
lhand -20.2805 21.502
lfingers 7.12502
lthumb 6.06904 51.3951
rfemur -28.3744 -9.06044 20.0716
rtibia 68.8431
rfoot -8.72175 -9.67691
rtoes -3.2949
lfemur -9.22048 0.58451 -24.5335
ltibia 33.2936
lfoot -15.2853 6.43171
ltoes -6.7636
64
root 11.5796 17.197 -12.0902 -2.69234 -0.993233 6.89818
lowerback 6.70442 -1.90613 -7.71474
upperback -0.27167 -3.07297 2.11556
thorax -3.52904 -1.36973 6.85221
lowerneck -15.8276 -4.02762 -10.3736
upperneck 23.34 -4.22315 5.14255
head 10.4358 -2.27479 2.99152
rclavicle -2.81405e-014 -1.74931e-014
rhumerus -38.9826 -19.447 -72.7555
rradius 30.9599
rwrist 6.39432
rhand -17.2816 11.7346
rfingers 7.12502
rthumb 8.96365 -18.055
lclavicle -2.81405e-014 -1.74931e-014
lhumerus -31.6426 12.2312 81.6249
lradius 21.9041
lwrist -10.8596
lhand -18.4899 26.7464
lfingers 7.12502
lthumb 7.7975 56.5826
rfemur -29.4433 -9.34754 20.1036
rtibia 67.1365
rfoot -9.59011 -9.93962
rtoes -3.53839
lfemur -8.28894 0.357764 -24.6723
ltibia 32.8528
lfoot -15.4605 6.83738
ltoes -7.05278
65
root 11.5297 17.1879 -11.8744 -2.4661 -0.622416 7.26851
lowerback 6.74084 -2.05475 -8.09672
upperback -0.403248 -3.31157 2.04509
thorax -3.63045 -1.47241 7.02013
lowerneck -15.8088 -4.01301 -10.3096
upperneck 23.2497 -4.20471 5.08566
head 10.3948 -2.26613 2.96179
rclavicle 1.11816e-016 -6.36111e-015
rhumerus -39.6589 -19.4401 -72.4978
rradius 30.6813
rwrist 6.54274
rhand -17.1199 12.3672
rfingers 7.12502
rthumb 9.1196 -17.4157
lclavicle 1.11816e-016 -6.36111e-015
lhumerus -31.3552 11.4421 81.665
lradius 23.1597
lwrist -10.776
lhand -18.8031 26.8534
lfingers 7.12502
lthumb 7.49521 56.7006
rfemur -30.5114 -9.67724 19.9427
rtibia 65.1681
rfoot -10.3194 -9.9105
rtoes -3.72927
lfemur -7.37287 -0.0842817 -24.9764
ltibia 32.265
lfoot -15.3687 7.1533
ltoes -4.04503
66
root 11.4781 17.1869 -11.6592 -2.32368 -0.495881 7.55762
lowerback 6.71811 -2.07121 -8.38921
upperback -0.389057 -3.35753 1.97235
thorax -3.58314 -1.49312 7.11091
lowerneck -15.6856 -4.0455 -10.2348
upperneck 22.8797 -4.27551 5.09615
head 10.2413 -2.28645 2.93941
rclavicle -3.18055e-014 -6.36111e-015
rhumerus -40.1888 -19.7666 -72.2112
rradius 30.4629
rwrist 6.88499
rhand -17.0687 12.9397
rfingers 7.12502
rthumb 9.16901 -16.8409
lclavicle -3.18055e-014 -6.36111e-015
lhumerus -30.7114 10.5769 81.7427
lradius 24.0281
lwrist -10.2182
lhand -22.2777 22.4379
lfingers 7.12502
lthumb 4.1406 52.3774
rfemur -31.334 -9.7024 19.8484
rtibia 62.9117
rfoot -10.8714 -10.0354
rtoes -4.49852
lfemur -6.18583 -0.364742 -25.2138
ltibia 31.5702
lfoot -15.6517 7.48192
ltoes -1.62954
67
root 11.4244 17.1805 -11.4517 -2.26493 -0.438359 7.85486
lowerback 6.94933 -2.04658 -8.57446
upperback -0.391535 -3.3658 1.82435
thorax -3.71358 -1.48763 7.07277
lowerneck -15.8209 -4.11442 -10.3313
upperneck 22.8746 -4.38686 5.31278
head 10.282 -2.31898 3.01642
rclavicle 6.1822e-014 -3.81667e-014
rhumerus -40.6501 -20.3658 -71.9361
rradius 30.0848
rwrist 7.51534
rhand -17.3481 12.9004
rfingers 7.12502
rthumb 8.89941 -16.8919
lclavicle 6.1822e-014 -3.81667e-014
lhumerus -29.872 9.36259 81.8587
lradius 24.728
lwrist -9.06897
lhand -24.1871 20.1582
lfingers 7.12502
lthumb 2.29664 50.1256
rfemur -32.0497 -9.63277 19.7195
rtibia 60.4444
rfoot -10.9705 -10.2937
rtoes -5.57992
lfemur -4.95424 -0.211769 -25.4649
ltibia 30.8949
lfoot -16.0731 7.717
ltoes -2.53353
68
root 11.3708 17.1649 -11.2471 -2.0499 -0.178582 8.29718
lowerback 7.18504 -2.08293 -8.86294
upperback -0.466983 -3.4706 1.63816
thorax -3.90269 -1.52235 7.06333
lowerneck -16.4104 -4.14893 -10.3683
upperneck 23.1742 -4.42056 5.51296
head 10.5116 -2.30989 3.08885
rclavicle 3.0911e-014 0
rhumerus -41.0625 -20.9281 -71.681
rradius 29.6599
rwrist 7.79309
rhand -17.3889 12.8766
rfingers 7.12502
rthumb 8.86006 -16.9174
lclavicle 3.0911e-014 0
lhumerus -29.0835 8.14955 81.9277
lradius 25.5788
lwrist -8.02818
lhand -23.9198 20.6718
lfingers 7.12502
lthumb 2.55481 50.6363
rfemur -32.8353 -9.79353 19.402
rtibia 57.7873
rfoot -10.7987 -10.369
rtoes -6.55951
lfemur -4.13291 -0.165519 -25.8306
ltibia 30.1993
lfoot -16.1863 7.87367
ltoes -4.25602
69
root 11.3187 17.1548 -11.041 -1.7459 -0.126659 8.46983
lowerback 6.99941 -2.10587 -8.9553
upperback -0.359694 -3.48811 1.61274
thorax -3.67782 -1.54554 7.07484
lowerneck -16.867 -4.15584 -10.3647
upperneck 23.0409 -4.39498 5.59538
head 10.5495 -2.27864 3.11584
rclavicle -3.57564e-014 -1.90833e-014
rhumerus -41.1735 -21.5187 -71.368
rradius 29.1848
rwrist 8.0935
rhand -17.3125 13.2606
rfingers 7.12502
rthumb 8.93384 -16.5303
lclavicle -3.57564e-014 -1.90833e-014
lhumerus -28.1021 7.33913 81.9594
lradius 26.522
lwrist -7.32178
lhand -23.3933 20.345
lfingers 7.12502
lthumb 3.06328 50.3027
rfemur -33.5881 -9.81303 19.3936
rtibia 54.9396
rfoot -10.5783 -10.4127
rtoes -7.26658
lfemur -3.40172 -0.382535 -25.8847
ltibia 29.41
lfoot -16.3956 7.98897
ltoes -3.2338
70
root 11.2669 17.1524 -10.8268 -1.547 -0.320513 8.84937
lowerback 6.64992 -2.07249 -9.31148
upperback -0.190665 -3.43262 1.58285
thorax -3.295 -1.53898 7.21433
lowerneck -16.8235 -4.18971 -10.552
upperneck 22.6473 -4.39979 5.67359
head 10.4055 -2.28244 3.16915
rclavicle -6.95746e-015 -1.59028e-014
rhumerus -41.1688 -21.9614 -70.9877
rradius 28.5151
rwrist 8.51596
rhand -17.222 13.8631
rfingers 7.12502
rthumb 9.02117 -15.924
lclavicle -6.95746e-015 -1.59028e-014
lhumerus -27.012 7.01057 81.9287
lradius 27.2511
lwrist -7.24256
lhand -22.3394 20.6925
lfingers 7.12502
lthumb 4.08108 50.6332
rfemur -34.1119 -9.68394 19.1302
rtibia 51.9703
rfoot -10.1804 -10.2909
rtoes -8.67744
lfemur -2.43569 -0.615 -26.2217
ltibia 28.5509
lfoot -16.701 8.33008
ltoes 0.2751
71
root 11.2121 17.131 -10.6063 -1.52024 -0.460718 9.44279
lowerback 6.74871 -2.03506 -9.81437
upperback -0.25333 -3.44117 1.4278
thorax -3.39725 -1.52712 7.34329
lowerneck -16.3744 -4.16565 -10.8
upperneck 22.3841 -4.36968 5.79073
head 10.2316 -2.2795 3.25722
rclavicle -9.19379e-015 2.06736e-014
rhumerus -41.6407 -22.1866 -70.6272
rradius 27.9563
rwrist 8.65701
rhand -17.2685 14.6618
rfingers 7.12502
rthumb 8.97626 -15.1272
lclavicle -9.19379e-015 2.06736e-014
lhumerus -26.3688 6.58881 81.7344
lradius 27.9685
lwrist -6.96156
lhand -18.8745 26.9172
lfingers 7.12502
lthumb 7.42628 56.7669
rfemur -34.4007 -9.57836 18.5848
rtibia 48.9106
rfoot -9.76317 -10.1174
rtoes -9.52266
lfemur -1.12982 -0.529089 -26.799
ltibia 27.6019
lfoot -16.7495 8.83672
ltoes -0.193173
